<svg xmlns="http://www.w3.org/2000/svg" xmlns:xlink="http://www.w3.org/1999/xlink" width="268.614" height="323.049" viewBox="0 0 268.614 323.049"><defs><filter id="a" x="0" y="0" width="268.614" height="323.049" filterUnits="userSpaceOnUse"><feOffset dy="1" input="SourceAlpha"/><feGaussianBlur stdDeviation="1" result="b"/><feFlood flood-opacity="0.161"/><feComposite operator="in" in2="b"/><feComposite in="SourceGraphic"/></filter><filter id="c" x="11.114" y="35.087" width="108.253" height="119.773" filterUnits="userSpaceOnUse"><feOffset dy="3" input="SourceAlpha"/><feGaussianBlur stdDeviation="3" result="d"/><feFlood flood-opacity="0.161"/><feComposite operator="in" in2="d"/><feComposite in="SourceGraphic"/></filter><filter id="e" x="17.592" y="181.886" width="102.101" height="121.944" filterUnits="userSpaceOnUse"><feOffset dy="3" input="SourceAlpha"/><feGaussianBlur stdDeviation="3" result="f"/><feFlood flood-opacity="0.161"/><feComposite operator="in" in2="f"/><feComposite in="SourceGraphic"/></filter><clipPath id="g"><rect width="35" height="35" transform="translate(-0.483 -0.227)" fill="#f99546" stroke="#707070" stroke-width="1"/></clipPath><filter id="h" x="146.166" y="35.102" width="108.236" height="119.759" filterUnits="userSpaceOnUse"><feOffset dy="3" input="SourceAlpha"/><feGaussianBlur stdDeviation="3" result="i"/><feFlood flood-opacity="0.161"/><feComposite operator="in" in2="i"/><feComposite in="SourceGraphic"/></filter><clipPath id="j"><rect width="35" height="36" transform="translate(0.186 0.403)" fill="#f99546" stroke="#707070" stroke-width="1"/></clipPath><filter id="k" x="146.114" y="180.821" width="101.697" height="120.909" filterUnits="userSpaceOnUse"><feOffset dy="3" input="SourceAlpha"/><feGaussianBlur stdDeviation="3" result="l"/><feFlood flood-opacity="0.161"/><feComposite operator="in" in2="l"/><feComposite in="SourceGraphic"/></filter><clipPath id="m"><rect width="35" height="35" transform="translate(-3640 1494)" fill="#fff" stroke="#707070" stroke-width="1"/></clipPath></defs><g transform="translate(-45.886 -160.691)"><g transform="matrix(1, 0, 0, 1, 45.89, 160.69)" filter="url(#a)"><path d="M291.767,49.538c-54.1,0-95.546-15.457-130.594-49.538C126.129,34.082,84.686,49.538,30.59,49.538c0,88.747-18.364,215.884,130.583,267.51C310.13,265.421,291.767,138.285,291.767,49.538Z" transform="translate(-26.87 2)" fill="#464646"/></g><g transform="translate(-0.326 -44)"><g transform="matrix(1, 0, 0, 1, 46.21, 204.69)" filter="url(#c)"><path d="M23.965,21.949c29.047-4.174,56-11.656,79.6-21.949V101.773H13.617c-.194-4.06-.31-8.231-.31-12.54A213.851,213.851,0,0,1,23.965,21.949Z" transform="translate(6.81 41.09)" fill="#454545"/></g></g><g transform="translate(9)" opacity="0"><text transform="translate(104 282.218)" fill="#f99546" font-size="11" font-family="Gotham-Medium, Gotham" font-weight="500"><tspan x="-31.433" y="0">Ambulence</tspan></text><g transform="translate(83 232.754)"><g transform="translate(0 0)"><path d="M7.166,26.343A1.227,1.227,0,1,0,8.394,27.57,1.231,1.231,0,0,0,7.166,26.343Z" transform="translate(1.208 0.809)" fill="#f99546"/><path d="M28.8,26.343a1.227,1.227,0,1,0,1.227,1.227A1.231,1.231,0,0,0,28.8,26.343Z" transform="translate(5.301 0.809)" fill="#f99546"/><path d="M42.334,30.247v-10.3a2.285,2.285,0,0,0-2.265-2.273H37.1l-.071-.071-.566-.71-4.106-5.185A3.114,3.114,0,0,0,29.875,10.5H24.707V6.878a2.71,2.71,0,0,0-2.69-2.77H2.69A2.725,2.725,0,0,0-.07,6.878V30.389A2.089,2.089,0,0,0,2.053,32.52H3.519a4.954,4.954,0,0,0,9.811,0H29a4.954,4.954,0,0,0,9.811,0h1.253A2.24,2.24,0,0,0,42.334,30.247ZM28.954,11.921h.991a1.741,1.741,0,0,1,1.345.639l2.336,2.912H29.45a.485.485,0,0,1-.5-.5V11.921ZM1.345,6.878A1.3,1.3,0,0,1,2.69,5.528H21.946a1.346,1.346,0,0,1,1.345,1.35v15.7H1.345ZM8.425,35.361a3.552,3.552,0,1,1,3.54-3.552A3.511,3.511,0,0,1,8.425,35.361ZM23.291,31.1H13.33a4.922,4.922,0,0,0-4.441-4.24l-.051,0c-.058,0-.116-.009-.174-.012-.079,0-.159-.006-.24-.006s-.16,0-.24.006c-.059,0-.116.007-.174.012l-.051,0A4.922,4.922,0,0,0,3.519,31.1H2.053a.67.67,0,0,1-.708-.71V24H23.291ZM33.91,35.361a3.552,3.552,0,1,1,3.54-3.552A3.511,3.511,0,0,1,33.91,35.361Zm7.008-12.785H29.662a.71.71,0,0,0,0,1.421H40.918v6.18a.88.88,0,0,1-.85.923H38.815A4.954,4.954,0,0,0,29,31.17H24.707V11.992h2.832v2.983a1.907,1.907,0,0,0,1.911,1.918h5.168l1.274,1.634a1.51,1.51,0,0,0,1.2.568h2.973a.862.862,0,0,1,.85.852v2.628Z" transform="translate(0.07 -4.108)" fill="#f99546"/><path d="M13.487,10.769H12.075V9.357a.985.985,0,0,0-.982-1.043H9.437A1,1,0,0,0,8.394,9.357v1.35H6.982A1.034,1.034,0,0,0,5.939,11.75v1.657a.985.985,0,0,0,.982,1.043H8.332v1.411A1.034,1.034,0,0,0,9.375,16.9h1.657a.985.985,0,0,0,1.043-.982V14.512h1.411a1.034,1.034,0,0,0,1.043-1.043V11.812A1.034,1.034,0,0,0,13.487,10.769ZM13.3,13.223H11.891a1.034,1.034,0,0,0-1.043,1.043v1.411H9.621V14.266a1.034,1.034,0,0,0-1.043-1.043H7.166V12H8.578a1.034,1.034,0,0,0,1.043-1.043V9.541h1.227v1.411A1.034,1.034,0,0,0,11.891,12H13.3v1.227Z" transform="translate(1.428 -3.046)" fill="#f99546"/></g></g></g><g transform="translate(72.478 348.577)"><g transform="matrix(1, 0, 0, 1, -26.59, -187.89)" filter="url(#e)"><path d="M16.955,125.632h84.1V229.576C75.874,220.8,30.268,195.489,16.955,125.632Z" transform="translate(9.64 62.25)" fill="#454545"/></g><g opacity="0"><text transform="translate(57.522 66.6)" fill="#f99546" font-size="11" font-family="Gotham-Medium, Gotham" font-weight="500"><tspan x="-10.774" y="0">Fire</tspan></text><g transform="translate(40.005 13.65)" clip-path="url(#g)"><g transform="translate(-0.273 -0.144)"><path d="M34.829,12.271,19.848.689A3.611,3.611,0,0,0,15.688.7L.734,12.262a1.669,1.669,0,0,0-.65,1.9,1.9,1.9,0,0,0,1.693,1.258V33.211a2.373,2.373,0,0,0,2.37,2.37H31.4a2.373,2.373,0,0,0,2.37-2.37V15.424a1.9,1.9,0,0,0,1.693-1.258,1.663,1.663,0,0,0-.637-1.894ZM31.4,34.4H4.147a1.186,1.186,0,0,1-1.185-1.185V15.1L17.787,3.592,32.588,15.1v18.11A1.186,1.186,0,0,1,31.4,34.4Zm2.936-20.6a.723.723,0,0,1-.732.453h-.182L18.452,2.608c-.007-.005-.016-.006-.023-.012s-.011-.013-.019-.018a1.208,1.208,0,0,0-1.313.03L2.124,14.251H1.943a.723.723,0,0,1-.732-.453.5.5,0,0,1,.235-.589L16.4,1.647a2.388,2.388,0,0,1,2.738-.011l14.98,11.582a.494.494,0,0,1,.222.58Zm0,0" transform="translate(0 -0.035)" fill="#f99546"/><path d="M23.329,17.349a.592.592,0,0,0-.274.732,2.235,2.235,0,0,1-.445,1.889,2.048,2.048,0,0,1-1.728.906c-.944-.052-1.16-.445-1.231-.574-.366-.668-.029-1.955.494-2.882,1.2-2.137-.577-3.992-1.149-4.509l-.069-.056A39.726,39.726,0,0,0,13.5,9.379h0a.593.593,0,0,0-.572,1.037,3.878,3.878,0,0,1,.46,1.28c.031.12.057.222.077.289a6.42,6.42,0,0,1,.25,1.891,6.633,6.633,0,0,1-1.154,3.435A21.308,21.308,0,0,1,10.7,19.725,25.286,25.286,0,0,0,8.926,22a6.2,6.2,0,0,0,0,7.146c1.866,2.633,5.475,4.179,9.1,4.179a11.771,11.771,0,0,0,4.041-.694,9.486,9.486,0,0,0,4.976-4.019h0c1.863-3.264.871-7.02-2.949-11.165a.655.655,0,0,0-.759-.1Zm-7.35,8.225c-.109-.076-.442-.309-.058-.913q.5-.64,1.052-1.228a3.288,3.288,0,0,0,.248.708c.511,1.051,1.78,1.778,3.008,2.481,1.18.676,2.4,1.375,2.6,2.18a1.494,1.494,0,0,1-.3,1.158,4.72,4.72,0,0,1-2.3,1.676,6.791,6.791,0,0,1-5.636-.319,2.253,2.253,0,0,1-.568-.532,2.354,2.354,0,0,1-.382-1.666c.015-.146.088-.538.177-.915q.055.044.113.086a2.328,2.328,0,0,0,2.11.343c.829-.288,1.061-.776,1.11-1.135.132-.965-.954-1.773-1.172-1.924Zm10.029,2.449a7.657,7.657,0,0,1-2.472,2.546,2.617,2.617,0,0,0,.44-2.049c-.317-1.3-1.761-2.128-3.159-2.928a6.507,6.507,0,0,1-2.531-1.971,2.082,2.082,0,0,1-.2-.7c0-.039-.01-.091-.018-.153a2.8,2.8,0,0,1-.033-.4.592.592,0,0,0-.889-.77l0,0a18.75,18.75,0,0,0-2.157,2.329c-.012.015-.033.045-.043.06a1.762,1.762,0,0,0,.358,2.555,1.584,1.584,0,0,1,.677.783s-.053.088-.329.184a1.146,1.146,0,0,1-.976-.151.767.767,0,0,1-.349-.381.593.593,0,0,0-.523-.592.91.91,0,0,0-.112-.007c-.907.023-1.171,2.011-1.23,2.62a3.724,3.724,0,0,0,.262,1.871,8.091,8.091,0,0,1-2.835-2.415,5.034,5.034,0,0,1,.026-5.8,24.2,24.2,0,0,1,1.694-2.165,22.509,22.509,0,0,0,1.958-2.555A7.86,7.86,0,0,0,14.9,13.9a7.6,7.6,0,0,0-.3-2.243c-.018-.063-.04-.15-.066-.252l-.025-.1A39.622,39.622,0,0,1,18.2,13.79c.408.369,1.679,1.679.912,3.05-.634,1.124-1.145,2.854-.5,4.032a2.456,2.456,0,0,0,2.2,1.188,3.187,3.187,0,0,0,2.75-1.389,3.953,3.953,0,0,0,.628-1.291c2.619,3.259,3.231,6.162,1.815,8.643Zm0,0" transform="translate(-0.097 -0.151)" fill="#f99546"/></g></g></g></g><g transform="translate(201.052 201.793)"><g transform="matrix(1, 0, 0, 1, -155.17, -41.1)" filter="url(#h)"><path d="M218.252,89.228c0,4.307-.127,8.478-.342,12.537H128.016V.006C151.634,10.3,178.578,17.778,207.6,21.952A213.373,213.373,0,0,1,218.252,89.228Z" transform="translate(27.15 41.1)" fill="#454545"/></g><g opacity="0"><text transform="translate(42.948 80.61)" fill="#f99546" font-size="11" font-family="Gotham-Medium, Gotham" font-weight="500"><tspan x="-16.896" y="0">Police</tspan></text><g transform="translate(25.762 27.804)" clip-path="url(#j)"><g transform="translate(1.945 0.28)"><path d="M25.9.2a.606.606,0,0,0-.808-.09,9.729,9.729,0,0,1-4.54,1.874A6.269,6.269,0,0,1,16.139.877a.605.605,0,0,0-.7,0,6.271,6.271,0,0,1-4.413,1.112A9.732,9.732,0,0,1,6.491.114a.606.606,0,0,0-.808.091L.177,6.451a.606.606,0,0,0,.077.874l1.22.972A4.147,4.147,0,0,1,3.36,11.568a13.191,13.191,0,0,1-1.213,4.583l-.085.215C.52,20.305-1.4,25.2,3.782,30.719c2.3,2.423,4.664,2.422,6.561,2.422h.021a7.156,7.156,0,0,1,4.988,2.21.614.614,0,0,0,.44.2.607.607,0,0,0,.449-.2,7.208,7.208,0,0,1,4.972-2.192c.18,0,.362,0,.546,0q.187,0,.377-.008l.192-.007A7.377,7.377,0,0,0,27.8,30.725a11.017,11.017,0,0,0,3.351-7.9A19.072,19.072,0,0,0,29.5,16.152c-.2-.512-.43-1.11-.623-1.668a8.926,8.926,0,0,1-.621-2.925,3.982,3.982,0,0,1,1.858-3.267l1.219-.976a.606.606,0,0,0,.076-.873Zm3.457,7.141a5.24,5.24,0,0,0-2.315,4.2,10.013,10.013,0,0,0,.687,3.331c.2.578.435,1.19.639,1.713,1.446,3.7,3.247,8.305-1.446,13.3a6.183,6.183,0,0,1-4.647,2.039l-.177.007q-.179.005-.355.007c-.179,0-.356,0-.538,0a8.508,8.508,0,0,0-5.415,2.15,8.512,8.512,0,0,0-5.421-2.149c-1.763,0-3.76,0-5.708-2.052a9.8,9.8,0,0,1-3.055-6.926A17.542,17.542,0,0,1,3.19,16.813l.085-.218a14.026,14.026,0,0,0,1.3-5.049,5.315,5.315,0,0,0-2.344-4.2l-.721-.575L6.236,1.41A10.129,10.129,0,0,0,11.79,3.238a7.474,7.474,0,0,0,4-1.139c2.773,1.732,6.283,1.478,9.556-.689l4.73,5.359Zm0,0" transform="translate(-0.025 0)" fill="#f99546"/><path d="M15.875,8.764A9.121,9.121,0,1,0,25,17.885,9.121,9.121,0,0,0,15.875,8.764Zm0,17.031a7.91,7.91,0,1,1,7.91-7.91A7.91,7.91,0,0,1,15.875,25.795Zm0,0" transform="translate(-0.109 -0.109)" fill="#f99546"/><path d="M20.724,16.278l-2.942-.428-1.315-2.666a.605.605,0,0,0-1.086,0l-1.316,2.666-2.941.428a.605.605,0,0,0-.336,1.033l2.129,2.075-.5,2.929a.606.606,0,0,0,.879.639l2.631-1.383,2.631,1.383a.606.606,0,0,0,.878-.638l-.5-2.929,2.129-2.075a.606.606,0,0,0-.336-1.033Zm-2.866,2.463a.6.6,0,0,0-.174.536l.349,2.034-1.827-.96a.606.606,0,0,0-.564,0l-1.827.96.349-2.034a.6.6,0,0,0-.174-.536L12.512,17.3l2.042-.3a.606.606,0,0,0,.456-.331l.913-1.85.913,1.851a.606.606,0,0,0,.456.331l2.043.3Zm0,0" transform="translate(-0.158 -0.16)" fill="#f99546"/></g></g></g></g><g transform="matrix(1, 0, 0, 1, 45.89, 160.69)" filter="url(#k)"><path d="M128.016,228.541V125.632h83.7C198.029,191.6,153.322,218.448,128.016,228.541Z" transform="translate(27.1 61.19)" fill="#454545"/></g><g transform="translate(-4)" opacity="0"><g transform="translate(3855 -1132)" clip-path="url(#m)"><g transform="translate(-3640 1494)"><path d="M27.661,21.681a3.442,3.442,0,0,0-2.5-1.145,3.56,3.56,0,0,0-2.526,1.138L20.3,24c-.192-.1-.384-.2-.569-.3-.266-.133-.517-.259-.731-.392a25.371,25.371,0,0,1-6.079-5.54,14.968,14.968,0,0,1-1.994-3.147c.606-.554,1.167-1.13,1.714-1.684.207-.207.414-.421.621-.628a3.389,3.389,0,0,0,0-5.112L11.247,5.186c-.229-.229-.465-.465-.687-.7-.443-.458-.909-.931-1.389-1.374A3.5,3.5,0,0,0,6.7,2.024,3.618,3.618,0,0,0,4.185,3.11l-.015.015L1.659,5.659a5.4,5.4,0,0,0-1.6,3.435A12.95,12.95,0,0,0,1,14.575,31.806,31.806,0,0,0,6.652,24a34.762,34.762,0,0,0,11.575,9.064,18.035,18.035,0,0,0,6.5,1.921c.155.007.318.015.465.015a5.566,5.566,0,0,0,4.262-1.832c.007-.015.022-.022.03-.037a16.793,16.793,0,0,1,1.293-1.337c.318-.3.643-.621.96-.953a3.685,3.685,0,0,0,1.115-2.556,3.55,3.55,0,0,0-1.138-2.534Zm2.645,7.779c-.007,0-.007.007,0,0-.288.31-.584.591-.9.9a19.424,19.424,0,0,0-1.426,1.477A3.561,3.561,0,0,1,25.2,33.013c-.111,0-.229,0-.34-.007A16.022,16.022,0,0,1,19.1,31.277,32.814,32.814,0,0,1,8.2,22.738a29.99,29.99,0,0,1-5.319-8.857A10.547,10.547,0,0,1,2.05,9.256,3.391,3.391,0,0,1,3.07,7.062L5.589,4.543a1.679,1.679,0,0,1,1.123-.524,1.58,1.58,0,0,1,1.079.517l.022.022c.451.421.879.857,1.33,1.322.229.236.465.473.7.717L11.86,8.614a1.41,1.41,0,0,1,0,2.29c-.214.214-.421.428-.635.635-.621.635-1.211,1.226-1.854,1.8-.015.015-.03.022-.037.037a1.507,1.507,0,0,0-.384,1.677l.022.066a16.19,16.19,0,0,0,2.386,3.893l.007.007a27.113,27.113,0,0,0,6.56,5.969,10.086,10.086,0,0,0,.909.495c.266.133.517.259.731.392.03.015.059.037.089.052a1.6,1.6,0,0,0,.731.185,1.579,1.579,0,0,0,1.123-.51l2.526-2.526a1.671,1.671,0,0,1,1.115-.554,1.5,1.5,0,0,1,1.064.539l.015.015,4.07,4.07A1.461,1.461,0,0,1,30.306,29.46Z" fill="#f99546"/><path d="M18.915,8.326a9.507,9.507,0,0,1,7.742,7.742.991.991,0,0,0,.982.827,1.319,1.319,0,0,0,.17-.015,1,1,0,0,0,.82-1.152,11.5,11.5,0,0,0-9.367-9.367,1,1,0,0,0-1.152.813A.986.986,0,0,0,18.915,8.326Z" fill="#f99546"/><path d="M34.959,15.439A18.929,18.929,0,0,0,19.535.015,1,1,0,1,0,19.21,1.98,16.907,16.907,0,0,1,32.994,15.764a.991.991,0,0,0,.982.827,1.319,1.319,0,0,0,.17-.015A.979.979,0,0,0,34.959,15.439Z" fill="#f99546"/></g></g><text transform="translate(233 415.177)" fill="#f99546" font-size="11" font-family="Gotham-Medium, Gotham" font-weight="500"><tspan x="-10.434" y="0">Call</tspan></text></g></g></svg>