<svg xmlns="http://www.w3.org/2000/svg" xmlns:xlink="http://www.w3.org/1999/xlink" width="44" height="44" viewBox="0 0 44 44">
  <defs>
    <clipPath id="clip-path">
      <rect id="Rectangle_50" data-name="Rectangle 50" width="44" height="44" transform="translate(-0.215 -0.214)" fill="#fff" stroke="#707070" stroke-width="1"/>
    </clipPath>
  </defs>
  <g id="Mask_Group_14" data-name="Mask Group 14" transform="translate(0.215 0.214)" clip-path="url(#clip-path)">
    <g id="_2a4088daeedee6e6aff9ceaf8a929291" data-name="2a4088daeedee6e6aff9ceaf8a929291" transform="translate(5.039 5.039)">
      <path id="Path_65" data-name="Path 65" d="M16.89,33.638h0A16.742,16.742,0,0,1,5.051,5.047,16.7,16.7,0,0,1,16.89.143h0A16.749,16.749,0,0,1,31.1,25.753l-1.716-1.07A14.72,14.72,0,0,0,16.894,2.166h0a14.73,14.73,0,0,0-5.735,28.293,14.607,14.607,0,0,0,5.732,1.159h0A14.668,14.668,0,0,0,26,28.46l1.251,1.586A16.7,16.7,0,0,1,16.89,33.638Z" transform="translate(-0.143 -0.143)" fill="#f99546"/>
      <path id="Path_66" data-name="Path 66" d="M10.631,1.594" transform="translate(14.462 1.878)" fill="#707070"/>
      <path id="Path_67" data-name="Path 67" d="M10.631,1.594" transform="translate(14.462 1.878)" fill="#707070"/>
      <path id="Path_68" data-name="Path 68" d="M10.61,1.58" transform="translate(14.432 1.858)" fill="#707070"/>
      <path id="Path_69" data-name="Path 69" d="M10.631,1.594" transform="translate(14.462 1.878)" fill="#707070"/>
      <path id="Path_70" data-name="Path 70" d="M10.61,1.58" transform="translate(14.432 1.858)" fill="#707070"/>
      <path id="Path_71" data-name="Path 71" d="M10.631,1.594" transform="translate(14.462 1.878)" fill="#707070"/>
      <path id="Path_72" data-name="Path 72" d="M10.61,1.594" transform="translate(14.432 1.878)" fill="#707070"/>
      <path id="Path_73" data-name="Path 73" d="M10.837,9.477h1.7l-1.62,8.162c-.089.437-.154.854-.2,1.251a9.422,9.422,0,0,0-.065,1.039,1.242,1.242,0,0,0,.311.9,1.153,1.153,0,0,0,.875.321,4.945,4.945,0,0,0,.831-.092c.342-.062.776-.157,1.3-.291v1.316a32.325,32.325,0,0,1-3.127.909,10.173,10.173,0,0,1-2.167.277A3,3,0,0,1,6.664,22.7,2.2,2.2,0,0,1,6,20.954a6.627,6.627,0,0,1,.092-.909c.062-.4.15-.872.263-1.408l1.371-6.49-2.317-.3V10.6Zm.537-6.5a2.454,2.454,0,0,1,1.678.52A1.908,1.908,0,0,1,13.636,5a2.415,2.415,0,0,1-.783,1.849,2.785,2.785,0,0,1-1.969.731A2.431,2.431,0,0,1,9.22,7.033a1.823,1.823,0,0,1-.625-1.442,2.467,2.467,0,0,1,.8-1.87A2.788,2.788,0,0,1,11.374,2.973Z" transform="translate(7.196 3.798)" fill="#f99546"/>
    </g>
  </g>
</svg>
