<svg id="svg" xmlns="http://www.w3.org/2000/svg" viewBox="0 0 755.43 722"><defs><style>.cls-1{fill:#464646;}.cls-1,.cls-2,.cls-4,.cls-7,.cls-8{fill-rule:evenodd;}.cls-2,.cls-3,.cls-6{fill:#fff;}.cls-4{fill:#f89547;}.cls-5,.cls-7,.cls-8{fill:none;stroke-linecap:round;stroke-width:6px;}.cls-5,.cls-6,.cls-7,.cls-8{stroke:#fff;}.cls-5,.cls-6,.cls-8{stroke-miterlimit:10;}.cls-6{font-size:37.67px;stroke-width:2px;font-family:OCRAExtended, OCR A Extended;}.cls-7{stroke-linejoin:round;}</style></defs><title>new logo</title><path class="cls-1" d="M77.14,129.76s303.43-172.29,614.57,2.57c0,0,5.15,462.85-286.71,559.28H361.29S46.29,422.9,77.14,129.76Z"/><path class="cls-2" d="M441.4,112.45c8.9,5.24,19,5.6,26.38.94,1.48-.93,1.88-.92,3.59.09,7.94,4.69,24.69,3.29,28.19-2.36,1.49-2.42,6.23,1.65,19.75,16.94,4.14,4.69,4.13,5.12-.27,8.35-8.26,6.07-9.19,12.6-3.53,24.85,13.21,28.61,2.14,52.12-26.06,55.34-9.74,1.12-12.09,1.91-16.74,5.65-3,2.39-3.36,2.32-8.71-1.65-3.52-2.6-6.61-3.5-13.29-3.88-11.14-.62-16.81-3.05-23.11-9.93C415.9,194,414.88,182,423.73,161.26c5.59-13.13,4.55-19.15-4.38-25.23-4.08-2.78-3.65-3.71,7-15.2s10.21-11.2,15-8.38"/><path class="cls-1" d="M430.5,123.64c-8.52,9.11-8.17,8-3.88,12,6.9,6.46,7.47,13.63,2.11,26.41-8.51,20.28-7.78,31.17,2.8,41.75,5.51,5.52,9.49,7.21,18.25,7.75,8.28.51,17.86,4.31,20,7.32.23.32.73-1.27,2.45-2.4,5.1-3.34,9-4.47,17-4.94,23-1.36,32.49-20.94,22.39-46.41-6.81-17.14-6.67-22.3.8-29.59l3.75-3.67-5.5-5.93c-3-3.26-6.3-6.8-7.27-7.87l-1.75-1.95-5.9,2.55c-7.56,3.27-16.5,3.68-22.62,1-3.49-1.51-3.8-1.53-6.1-.43-4.94,2.34-17.28,2.66-21.62.55-.72-.35-2.64-1.32-4.29-2.17a27.22,27.22,0,0,0-3.29-1.55c-.17,0-3.46,3.38-7.32,7.51"/><path class="cls-2" d="M475.23,138.47c36.54,7,31.67,57.43-5.55,57.58-37,.14-42.83-49.61-6.75-57.45,6.05-1.31,6.11-1.31,12.3-.13"/><path class="cls-1" d="M465.77,142.87c-23.32,3.86-29.94,32.52-10.36,44.87,19.39,12.25,45.21-5.42,39-26.73C491,149.09,478,140.85,465.77,142.87"/><path class="cls-2" d="M296.85,285.73c1.25.64,9.95,7.11,19.33,14.36l27.53,21.26c11.22,8.64,12.62,10.1,12.62,13,0,2.25-2.38,5.48-4.69,6.36l-1.66.63-.2,33.84-.2,33.83h0a5,5,0,0,1-5,4.86h-53.2c-52,0-52.88,0-54.68-1.44-4.07-3.2-4-3-4-38.48v-32.6l-1.71-.65c-3.24-1.24-5-5.87-3.54-9.57.24-.63,3-3.15,6.22-5.61L261.52,304c27.3-21.15,28.49-21.76,35.33-18.24"/><line class="cls-3" x1="291.42" y1="287.84" x2="260.04" y2="311.87"/><path class="cls-1" d="M260,311.87c-15.24,11.84-27.72,22-27.72,22.51,0,2.77,4.24-.05,29.41-19.6,10.49-8.14,20.57-15.41,25.89-19.18a6.3,6.3,0,0,1,7.52.14c4.55,3.51,14.83,11.28,38,28.47,8.15,6.33,15.45,11.52,16.22,11.52,2.93,0,.66-2.63-8.32-9.61L294.2,290a4.59,4.59,0,0,0-5.57,0Z"/><path class="cls-1" d="M264.82,319.2,238.4,339.64l0,33.46c0,31.54.06,33.54,1.28,34.65,1.57,1.42,100.6,1.84,103.22.44,1.33-.71,1.37-1.85,1.37-34.67V339.59l-13.11-10.11c-7.2-5.57-13.52-10.51-14-11s-2.84-2.3-5.17-4-4.74-3.56-5.33-4.05c-5.7-4.69-14.95-11.62-14.95-11.62s-12.31,9.2-26.84,20.43"/><path class="cls-2" d="M494.42,309.84c14.75,4.46,27.07,14.67,33,27.33,3.16,6.77,3.72,8.42,4.18,12.29.94,8-5.12,8.45-6.4.45-2.22-13.85-17.75-30.28-31.59-33.42-5.59-1.26-7.93-2.56-7.93-4.39,0-3.51,2.5-4.15,8.75-2.26"/><path class="cls-2" d="M457.73,315.15c3,1.11,17.08,15.91,17.66,18.54.9,4.1-.22,6.81-4.68,11.37-2.32,2.38-4.23,4.63-4.23,5,0,2.88,12.15,16.64,18.48,20.94s5.71,4.23,10.53-.45c8.05-7.81,11.24-7.21,22.41,4.21l5.45,5.56a9.92,9.92,0,0,1,2.83,6.93h0c0,4-3.35,8.76-10.66,15.09-6.6,5.71-18,4.79-32.36-2.64-6.13-3.17-8.55-4.76-16.55-10.84-16-12.19-30.34-35.29-31.19-50.36-.75-13.36,12.34-27.06,22.31-23.36"/><path class="cls-2" d="M278.79,319.5c20.72,12.42,26,19.25,21.38,27.82-3.57,6.66-2.52,11.86,2.4,11.86,4.35,0,7.1-2.92,7-7.46-.05-3.14,1.11-5.33,2.82-5.33,2,0,11.65,12.71,13,17.05a10,10,0,0,0,1.12,2.52,21.31,21.31,0,0,1,1.33,5.35C332,397.2,298.14,415,271.55,400.85c-18.21-9.66-22.18-25.12-10.35-40.33l7.44-9.6c7.74-10,9.1-18.23,4.54-27.65-2.47-5.1.29-7,5.61-3.77"/><path class="cls-1" d="M447.07,326.45l-3.2,3.21a7.62,7.62,0,0,0-2.23,5.89l.12,2.09c1.52,24.85,36.48,59.87,61.74,61.85,4.82.38,6.4-.48,12.2-6.62,5.38-5.7,5.33-5.94-2.83-14s-8.12-8.17-14.76-1.88c-5.91,5.59-6.25,5.69-10.88,3.13-11.83-6.53-26.65-22.61-27.64-30-.34-2.53-.09-2.94,4.69-7.76,6.33-6.38,6.4-5.92-1.94-14.42s-8.19-8.54-15.27-1.47"/><path class="cls-2" d="M492.12,327.14c12.78,4.28,24.91,18.94,22.35,27-1.1,3.46-5.62,2.26-6.36-1.7-1.64-8.73-8.5-15.84-18.53-19.2-4.72-1.58-5.84-3.53-3.5-6.11,1.48-1.64,1.15-1.64,6,0"/><path class="cls-1" d="M280.82,331.74c.78,9.71-2.34,16.3-14.65,31-5.14,6.14-6,8.24-6.05,14.22,0,6.56,1.47,9.76,6.71,14.46,4.56,4.1,4.58,4.1,4.58-.43,0-7.85,3.52-13.34,6.66-10.41a4.81,4.81,0,0,1,1.51,2.09c0,.37,1,.68,2.22.68H284l-2.57-2.84c-4.32-4.79-3.15-8.44,5.29-16.46,3.56-3.39,6.9-2.67,5.91,1.27-.89,3.54,2.14,6.83,11.61,12.64,7.87,4.84,9.61,7,9.61,11.88v3.55l1.77-1.64c9-8.4,9.52-19.69,1.4-32.38-1.93-3-3.34-3.89-3.34-2.05,0,3.23-6.59,7.55-11.52,7.55-8.51,0-12.26-8.77-7.62-17.84,3.29-6.45,1.53-9.91-8.41-16.52-6.15-4.08-5.75-4.18-5.32,1.24"/><path class="cls-1" d="M286.08,372.52c-1.77,2.2-2,4.3-.47,4.87,1.33.51,3.92,4.66,3.92,6.27,0,3.62-9.24,7.52-11,4.64-.84-1.35-1.77.09-1.77,2.74,0,10.29,20.17,12.59,29.41,3.35,4.46-4.46,2.76-8.06-6-12.75-5.21-2.78-8.35-5.26-10.62-8.39l-1.9-2.63-1.53,1.9"/><path class="cls-3" d="M469.29,157.56l2.33,4.74a4.76,4.76,0,0,0,3.6,2.61l5.22.76-3.78,3.69a4.78,4.78,0,0,0-1.37,4.23l.89,5.2-4.67-2.46a4.78,4.78,0,0,0-4.45,0l-4.67,2.46.89-5.2a4.78,4.78,0,0,0-1.37-4.23l-3.78-3.69,5.22-.76a4.76,4.76,0,0,0,3.6-2.61l2.34-4.74m0-8.05a.8.8,0,0,0-.71.44l-5.22,10.58a.75.75,0,0,1-.59.42l-11.67,1.7a.78.78,0,0,0-.43,1.33l8.44,8.24a.78.78,0,0,1,.23.69l-2,11.63a.79.79,0,0,0,.77.92.74.74,0,0,0,.37-.1l10.44-5.49a.81.81,0,0,1,.37-.09.77.77,0,0,1,.36.09l10.44,5.49a.74.74,0,0,0,.37.1.79.79,0,0,0,.77-.92l-2-11.63a.78.78,0,0,1,.23-.69l8.45-8.24a.78.78,0,0,0-.44-1.33L475.8,161a.75.75,0,0,1-.59-.42L470,150a.79.79,0,0,0-.7-.44Z"/><path class="cls-4" d="M361.93,695.15S210.21,653,116.68,464.68c0,0-58.18-112.5-67.82-210.21,0,0,28.93-7.71,39.21,20.57,0,0,50.79,192.54,154,263.89,0,0-46.61-55.17-53-102.32,0,0-7.38-47.92,21-55.71,0,0,2.57,55.28,64.71,110.14,0,0,58.93,49.82,69.54,75.86C344.25,566.9,371.89,599.68,361.93,695.15Z"/><path class="cls-4" d="M403,695.15S554.7,653,648.24,464.68c0,0,58.18-112.5,67.82-210.21,0,0-28.93-7.71-39.22,20.57,0,0-50.78,192.54-154,263.89,0,0,46.61-55.17,53-102.32,0,0,7.38-47.92-21-55.71,0,0-2.58,55.28-64.72,110.14,0,0-58.93,49.82-69.53,75.86C420.67,566.9,393,599.68,403,695.15Z"/><line class="cls-5" x1="215.22" y1="155.5" x2="203.38" y2="155.5"/><line class="cls-5" x1="215.22" y1="188.12" x2="203.38" y2="188.12"/><line class="cls-5" x1="215.22" y1="172.48" x2="198.35" y2="172.48"/><text class="cls-6" transform="translate(258.18 187.51)">+</text><path class="cls-7" d="M312,192l.18-42.8H224.14s8.15-19.72,8.15-19.08L303,131l7.82,13.82,1.39,4.4,19.93-.22,11.15,28.93V204l-16.56.24"/><path class="cls-8" d="M266,205.2l30.32.11"/><path class="cls-8" d="M224.14,149.17v50.36a4.93,4.93,0,0,0,.62,2.4l.32.59a5,5,0,0,0,4.36,2.57l5.2-.1"/><line class="cls-5" x1="312.21" y1="162.02" x2="336.43" y2="162.02"/><circle class="cls-5" cx="250.1" cy="206.77" r="15"/><circle class="cls-3" cx="250.1" cy="206.77" r="5"/><circle class="cls-5" cx="311.89" cy="207.4" r="15"/><circle class="cls-3" cx="311.89" cy="207.4" r="5"/></svg>