<svg xmlns="http://www.w3.org/2000/svg" xmlns:xlink="http://www.w3.org/1999/xlink" width="24" height="24" viewBox="0 0 24 24">
  <defs>
    <clipPath id="clip-path">
      <rect id="Rectangle_1274" data-name="Rectangle 1274" width="20" height="20" transform="translate(-3087 4579)" fill="#fff" stroke="#707070" stroke-width="1"/>
    </clipPath>
  </defs>
  <g id="Group_4000" data-name="Group 4000" transform="translate(3087 -4608)">
    <rect id="Rectangle_1275" data-name="Rectangle 1275" width="24" height="24" transform="translate(-3087 4608)" fill="none"/>
    <g id="Mask_Group_276" data-name="Mask Group 276" transform="translate(2 31)" clip-path="url(#clip-path)">
      <g id="Sphara_Chat_Icons_1_" data-name="Sphara Chat Icons (1)" transform="translate(-3086.36 4580.01)">
        <path id="Path_6059" data-name="Path 6059" d="M3.008,6.368a4.776,4.776,0,0,0,1.64,3.595A4.316,4.316,0,0,1,6.515,2.888a1.341,1.341,0,0,1-.041-1.134A4.778,4.778,0,0,0,3.016,6.082Q3.008,6.224,3.008,6.368Z" transform="translate(1.466 -0.979)" fill="#0093d5"/>
        <path id="Path_6060" data-name="Path 6060" d="M6.71,1.722a1.34,1.34,0,0,1,0,1.141,4.316,4.316,0,0,1,2.037,7.1A4.787,4.787,0,0,0,6.71,1.722Z" transform="translate(3.674 -0.998)" fill="#0093d5"/>
        <path id="Path_6061" data-name="Path 6061" d="M8.881,4.42A4.316,4.316,0,1,1,5.958,11.9a4.786,4.786,0,1,0-.018-6.31A4.3,4.3,0,0,1,8.881,4.42Z" transform="translate(3.214 0.329)" fill="#3ccc06"/>
        <path id="Path_6062" data-name="Path 6062" d="M12.109,9.834A4.316,4.316,0,1,1,4.63,6.909a4.786,4.786,0,1,0,6.311-.016A4.3,4.3,0,0,1,12.109,9.834Z" transform="translate(1.466 2.085)" fill="#f99547"/>
        <circle id="Ellipse_339" data-name="Ellipse 339" cx="1.34" cy="1.34" r="1.34" transform="translate(7.814 0)" fill="#fbcba7" stroke="#fff" stroke-miterlimit="10" stroke-width="0.128"/>
        <g id="Group_3999" data-name="Group 3999" transform="translate(0.716 4.295)">
          <path id="Path_6063" data-name="Path 6063" d="M4.458,4.43A4.3,4.3,0,0,1,7.4,5.591,4.775,4.775,0,0,0,3.8,3.96c-.065,0-.129,0-.194,0a4.281,4.281,0,0,0-.211.6A4.316,4.316,0,0,1,4.458,4.43Z" transform="translate(0.983 -3.96)" fill="#ed5497"/>
          <path id="Path_6064" data-name="Path 6064" d="M1.779,8.712A4.317,4.317,0,0,1,4.42,4.733a4.813,4.813,0,0,1,.1-.718,4.787,4.787,0,1,0,4.524,7.852,4.316,4.316,0,0,1-7.26-3.155Z" transform="translate(-0.654 -3.926)" fill="#ed5497"/>
        </g>
        <circle id="Ellipse_340" data-name="Ellipse 340" cx="1.34" cy="1.34" r="1.34" transform="translate(7.773 15.3)" fill="#fbcba7" stroke="#fff" stroke-miterlimit="10" stroke-width="0.128"/>
        <circle id="Ellipse_341" data-name="Ellipse 341" cx="1.34" cy="1.34" r="1.34" transform="translate(0 7.65)" fill="#fbcba7" stroke="#fff" stroke-miterlimit="10" stroke-width="0.128"/>
        <circle id="Ellipse_342" data-name="Ellipse 342" cx="1.34" cy="1.34" r="1.34" transform="translate(15.515 7.66)" fill="#fbcba7" stroke="#fff" stroke-miterlimit="10" stroke-width="0.128"/>
      </g>
    </g>
  </g>
</svg>
